<svg xmlns="http://www.w3.org/2000/svg" viewBox="0 0 128 36" width="512" height="144">
  <path fill="#d93740" d="M28.3 20.47a9.73 9.73 0 00-1.17-.3l-.74-.16c-.23-.06-.36-.11-.4-.18l-.27.14a5.4 5.4 0 00-1.74 1.18 8.08 8.08 0 00-2.54 5.91c0 .82.12 1.52.37 2.1.24.59.57 1.08.99 1.5.4.4.88.7 1.4.9a4.7 4.7 0 005.15-1.3 6.06 6.06 0 001.47-4.28c0-1.03-.16-2.01-.47-2.96-.3-.95-.99-1.8-2.06-2.56zm3.85 10.88c-.8.88-1.72 1.6-2.75 2.2a7.34 7.34 0 01-6.52.2 6.85 6.85 0 01-3.62-4.2 8.69 8.69 0 010-5.47c.3-1.02.7-2 1.24-2.93a8.56 8.56 0 011.97-2.35 3.95 3.95 0 012.57-.95c.59 0 1 .27 1.25.81a3.3 3.3 0 011.66-.54c.56 0 1.07.08 1.57.23.5.15.81.3.97.45a6.7 6.7 0 012.42 3.12 12.67 12.67 0 01.4 7.15 5.3 5.3 0 01-1.15 2.28h-.01zM41.39 25.4l.18.3a7 7 0 001.56 1.88c.68.59 1.4 1.18 2.16 1.78.3.27.7.58 1.17.93.48.35.93.73 1.38 1.13.44.4.82.8 1.13 1.2.3.4.46.77.46 1.13 0 .33-.13.65-.4.95-.25.3-.6.45-1.03.45-.49 0-.89-.24-1.2-.72a8.27 8.27 0 00-1.45-1.67 194.35 194.35 0 00-3.9-3.34 16.38 16.38 0 01-1.87-1.8v3.11c0 .42.01.9.05 1.43.03.53.01 1.02-.05 1.46-.06.46-.2.84-.42 1.15-.22.32-.56.48-1.03.48-.4 0-.74-.14-1-.4-.27-.28-.4-.6-.4-1v-8.04c0-2.53.04-5.03.12-7.52.08-2.48.26-4.99.54-7.52 0-.35.13-.67.4-.95.26-.26.6-.4 1-.4.65 0 1.05.25 1.2.76a5.6 5.6 0 01.21 2.03c-.01.13-.04.26-.07.41-.24 1.8-.4 3.59-.48 5.35-.08 1.76-.11 3.54-.11 5.35.46-.51 1-.97 1.63-1.38l1.93-1.22c.66-.4 1.31-.83 1.96-1.28.64-.46 1.21-1 1.7-1.63.31-.36.69-.54 1.15-.54.43 0 .77.14 1.04.42.26.3.39.6.39.93 0 .33-.1.6-.32.8-.5.7-1.1 1.29-1.82 1.77s-1.45.94-2.18 1.36c-.74.42-1.43.85-2.09 1.29-.66.44-1.17.94-1.54 1.51v.05z"/>
  <path fill="#d93740" d="M65.83 31.48a5.33 5.33 0 01-2.44 2.37c-1.07.53-2.19.8-3.35.8-.71 0-1.42-.03-2.16-.08-.74-.04-1.45-.15-2.14-.33a8.01 8.01 0 01-1.95-.8 5.49 5.49 0 01-1.64-1.42 9.02 9.02 0 01.1-11.63 8.1 8.1 0 012.53-1.94c1-.5 2.11-.74 3.33-.74a7.55 7.55 0 013.38.82 4.68 4.68 0 012.23 2.57l.23.64c.06.11.09.24.09.35 0 .1-.03.23-.1.4l-.08.46c-.22.27-.35.58-.42.93-.06.34-.2.65-.41.92l-.46.63c-.1.15-.2.26-.33.34-.12.08-.25.14-.4.2l-.88.27-2.14.46a10.61 10.61 0 01-3.15.18c-.34-.02-.66-.1-.95-.22a1.9 1.9 0 01-.71-.48c-.19-.21-.28-.48-.28-.8 0-.42.14-.75.42-1 .27-.26.58-.38.91-.38.25 0 .5.03.78.09.27.06.55.09.83.09.6 0 1.21-.06 1.8-.18l1.7-.36.27-.1.32-.63.16-.3.16-.3-.18-.41a3.06 3.06 0 00-1.24-1.07c-.5-.23-1.01-.35-1.56-.35-.65 0-1.29.15-1.9.45-.64.3-1.2.72-1.68 1.24a6.8 6.8 0 00-1.2 1.78c-.3.66-.46 1.36-.46 2.08 0 .63.07 1.3.23 2.01a5 5 0 002.62 3.39c.73.38 1.68.56 2.85.56.98 0 1.94-.16 2.87-.5a4.27 4.27 0 002.19-1.67c.21-.39.55-.58 1-.58.38 0 .73.14 1.06.43.34.29.5.62.5 1.02 0 .3-.12.57-.36.8h.01zM73.23 34.55c.03.33-.07.63-.3.89-.23.25-.52.4-.86.47l-.33.05a.72.72 0 01-.28.04c-.6 0-1-.27-1.21-.81l-.24-.9c0-.16 0-.3-.02-.46a4.94 4.94 0 01.12-1.6c.1-.38.17-.75.23-1.11-.15-2.26-.4-4.52-.73-6.78-.34-2.25-.6-4.51-.79-6.77 0-.4.12-.74.35-1.06.23-.32.58-.48 1.08-.48.43 0 .77.23 1 .66.23.43.4.97.49 1.6.09.64.16 1.3.2 2 .06.69.1 1.3.17 1.84a11.03 11.03 0 013.76-4.24 11.6 11.6 0 012.62-1.31c.93-.33 1.88-.5 2.82-.5.34 0 .66.13.94.37.3.24.44.56.44.95 0 .33-.11.63-.35.9-.23.27-.52.42-.9.45a8.1 8.1 0 00-4.43 1.7 8.9 8.9 0 00-2.87 3.81 48.66 48.66 0 01-.48 3.39c-.2 1.11-.38 2.24-.53 3.39v2.34c0 .18.02.37.05.55l.05.63zM92.2 18.62a5.35 5.35 0 011.4-.82c.24-.09.46-.13.67-.13.28 0 .47.07.58.22.1.16.16.32.16.5 0 .57-.23 1.16-.69 1.76-.46.6-1.08 1.48-1.88 2.62-.25.36-.6.74-1.06 1.15a27.98 27.98 0 01-2.46 1.92c-.32.21-.48.3-.48.27l.43.5a4.37 4.37 0 01.49.67c.02.07.12.2.27.43.15.23.34.48.57.77l.72.86a11.22 11.22 0 001.58 1.52c.42.33.83.67 1.24 1.04.42.36.77.71 1.08 1.06.3.34.46.61.46.79 0 .18-.22.32-.66.4-.44.1-.82.14-1.13.14-.43 0-.72-.06-.88-.18a451.67 451.67 0 01-3.08-2.55 99.97 99.97 0 00-3.66-2.91c-.4-.36-.6-.88-.6-1.54a4.62 4.62 0 01.65-2.4l.34-.33.76-.72c.3-.29.64-.62 1-1l1.15-1.1c.9-.88 1.9-1.86 3.04-2.94zM120.3 33.99c-.19.1-.4.2-.64.3-.23.09-.45.13-.66.13-.28 0-.47-.07-.58-.2a.77.77 0 01-.16-.47c0-.6.23-1.22.67-1.85.44-.64 1.06-1.48 1.86-2.53.27-.36.64-.74 1.1-1.13a36.8 36.8 0 012.94-2.26c0 .03-.07-.02-.23-.18a16.05 16.05 0 01-.96-1.37 8.2 8.2 0 00-.57-.75l-.74-.86a19.23 19.23 0 00-1.61-1.51 28.92 28.92 0 01-2.3-2.16c-.32-.35-.48-.6-.48-.8 0-.15.23-.26.69-.36.46-.09.84-.14 1.15-.14.42 0 .7.06.82.18l1.08.88 2.02 1.65 2.2 1.76 1.5 1.22c.25.15.41.34.49.58.08.25.11.51.11.82 0 .54-.1 1.07-.3 1.6-.2.53-.33.82-.4.88-.02.06-.2.25-.52.57l-1.17 1.15-1.51 1.44a84.62 84.62 0 00-3.08 2.94c-.27.21-.5.37-.71.48v-.01zM10.66 33.53c.38-.18.65-.42.82-.72l1.16-2.32a33.52 33.52 0 001.24-9.34c0-1.26-.05-2.52-.14-3.76l-.3-3.72-.3-3.8C13.05 8.6 13 7.24 13 5.84v-.32h3.77c.37 0 .7-.12.97-.38.27-.25.41-.56.41-.93s-.14-.7-.4-.96c-.28-.27-.6-.4-.98-.4H4.13a1.31 1.31 0 00-1.33 1.3c0 .37.13.7.39.96.25.27.57.4.95.4h1c.7.07 1.42.1 2.14.12.72.02 1.43.06 2.13.11l.89.08v.05c0 1.45.04 2.85.1 4.17a1591.19 1591.19 0 00.47 7.63 60.03 60.03 0 01.04 6.66c-.04.98-.14 2.02-.3 3.1L9.3 31l-.74-.15a3.67 3.67 0 01-1.38-1.3c-.38-.59-.7-1.2-.93-1.85a15.61 15.61 0 01-.82-2.93 37.1 37.1 0 01-.32-2.1c-.1-.73-.26-1.71-.5-3-.08-.37-.23-.64-.48-.8a1.4 1.4 0 00-.8-.26c-.34 0-.66.11-.94.32-.3.22-.45.56-.45.99v.25c.25 1.26.42 2.29.53 3.09a26.34 26.34 0 00.78 3.9c.17.74.45 1.53.84 2.35.38.82.9 1.6 1.56 2.33a6.1 6.1 0 002.56 1.67l1.04.22c.1.03.26.05.45.05.27 0 .59-.09.96-.27l.01.02zM16.98.93s3.1.17 3.16 3.3c.06 3.13-3.16 3.23-3.16 3.23h-1.93s.42 6.67.6 8.38c.2 1.7.36 7.07.17 7.97 0 0-.38 5.97-1.87 8.67-1.48 2.7-2.15 3.19-4.26 3.29-2.12.1-5.22-1.43-6.65-4.03-1.4-2.53-1.56-2.53-2.8-9.32-.77-4.24.44-5 2.12-5.63 0 0 3.64-1.3 4.3 2.98.66 4.29 1.04 6.77 1.7 7.86 0 0 .82-.16.66-6.9-.16-6.73-.7-13.12-.7-13.12l-4.51-.13S.9 7.36.78 4.04C.65.72 4.38.94 4.38.94h12.6zM105.59 30.19s-1.48.45-1.47 1.17c0 .72-.2 2.57.64 2.62.84.05 2.1-.07 2.12-1.5.01-1.43-.23-2.47-1.3-2.3zm3.05 1.9c.09 1.64.21 2.62-2.46 3.38-2.68.76-3.18-.64-3.18-.64s-1.43-2.78-.21-4.64c1.2-1.87 2.76-1.7 2.76-1.7 2.12-.03 2.99 1.95 3.08 3.6zM104.75 25.46s.92.45 1.72-.98c.8-1.43 2.72-4.78 2.98-5.21.27-.43 3.96-5.74 4.47-7.86.52-2.12 1.01-5.28-2.03-7.74s-4.82-1.87-5.67-1.76c-.85.11-3.78 1.56-5.43 5.3 0 0-1.17 1.66 0 2.16 1.17.5 1.74-.37 1.98-1.29.25-.91 1.79-3.96 3.48-4.35 1.7-.38 2.87 0 3.85.95s2.02 3.21 1.74 5.12c-.28 1.9-1.89 4.7-2.62 5.75-.73 1.06-3.53 4.83-4.2 6.52-.66 1.68-.95 1.8-.9 2.32.07.54.14.82.63 1.06v.01zM98.8 6.96c1.96-4.62 5.47-6.27 6.25-6.55.78-.27 3.98-1.34 7.49 1.62 3.5 2.96 3.45 4.86 3.3 8.04-.16 3.17-3.21 7.39-3.4 7.6-.19.22-3.57 6.05-4.78 8.19-1.22 2.14-3.55 1.34-4.17 1-.63-.33-1.56-.82-1.28-2.9s3.08-6.14 5.35-9.23c2.27-3.08 2.42-5 2.36-6.42-.06-1.42-1.43-2.83-2.34-2.92-.9-.09-1.23.19-1.98.98s-1.62 3.17-1.62 3.17c-1.52 2.87-4.5 1.26-4.5 1.26-2.34-1.38-.7-3.85-.7-3.85h.02z"/>
</svg>
